<mxfile host="app.diagrams.net" modified="2023-05-18T10:59:32.236Z" agent="Mozilla/5.0 (X11; Ubuntu; Linux x86_64; rv:109.0) Gecko/20100101 Firefox/113.0" etag="i_FA2vDuITBQm-ppKfvC" version="21.3.2" type="github">
  <diagram name="Page-1" id="MDmybFD7kO_Op94O6Ygp">
    <mxGraphModel dx="1360" dy="795" grid="1" gridSize="10" guides="1" tooltips="1" connect="1" arrows="1" fold="1" page="1" pageScale="1" pageWidth="850" pageHeight="1100" math="0" shadow="0">
      <root>
        <mxCell id="0" />
        <mxCell id="1" parent="0" />
        <mxCell id="bkmt0g3M4OaSRguMLRIl-1" value="" style="rounded=0;whiteSpace=wrap;html=1;" vertex="1" parent="1">
          <mxGeometry x="240" y="60" width="530" height="585" as="geometry" />
        </mxCell>
        <mxCell id="bkmt0g3M4OaSRguMLRIl-2" value="Input text" style="text;html=1;strokeColor=none;fillColor=none;align=center;verticalAlign=middle;whiteSpace=wrap;rounded=0;" vertex="1" parent="1">
          <mxGeometry x="160" y="105" width="60" height="30" as="geometry" />
        </mxCell>
        <mxCell id="bkmt0g3M4OaSRguMLRIl-3" value="Actor" style="shape=umlActor;verticalLabelPosition=bottom;verticalAlign=top;html=1;outlineConnect=0;" vertex="1" parent="1">
          <mxGeometry x="80" y="105" width="30" height="60" as="geometry" />
        </mxCell>
        <mxCell id="bkmt0g3M4OaSRguMLRIl-4" value="" style="endArrow=classic;html=1;rounded=0;entryX=0;entryY=0.5;entryDx=0;entryDy=0;" edge="1" parent="1" target="bkmt0g3M4OaSRguMLRIl-6">
          <mxGeometry width="50" height="50" relative="1" as="geometry">
            <mxPoint x="130" y="140" as="sourcePoint" />
            <mxPoint x="160" y="100" as="targetPoint" />
          </mxGeometry>
        </mxCell>
        <mxCell id="bkmt0g3M4OaSRguMLRIl-6" value="Planner prompt" style="rounded=0;whiteSpace=wrap;html=1;" vertex="1" parent="1">
          <mxGeometry x="260" y="90" width="190" height="100" as="geometry" />
        </mxCell>
        <mxCell id="bkmt0g3M4OaSRguMLRIl-7" value="Dependency Tracker Prompt" style="rounded=0;whiteSpace=wrap;html=1;" vertex="1" parent="1">
          <mxGeometry x="550" y="90" width="190" height="100" as="geometry" />
        </mxCell>
        <mxCell id="bkmt0g3M4OaSRguMLRIl-8" value="" style="endArrow=classic;html=1;rounded=0;entryX=0;entryY=0.5;entryDx=0;entryDy=0;exitX=1;exitY=0.5;exitDx=0;exitDy=0;" edge="1" parent="1" source="bkmt0g3M4OaSRguMLRIl-6" target="bkmt0g3M4OaSRguMLRIl-7">
          <mxGeometry width="50" height="50" relative="1" as="geometry">
            <mxPoint x="460" y="170" as="sourcePoint" />
            <mxPoint x="510" y="120" as="targetPoint" />
          </mxGeometry>
        </mxCell>
        <mxCell id="bkmt0g3M4OaSRguMLRIl-9" value="Virtualenv / Pip Install" style="rounded=0;whiteSpace=wrap;html=1;" vertex="1" parent="1">
          <mxGeometry x="260" y="230" width="190" height="100" as="geometry" />
        </mxCell>
        <mxCell id="bkmt0g3M4OaSRguMLRIl-10" value="" style="endArrow=classic;html=1;rounded=0;exitX=0;exitY=0.75;exitDx=0;exitDy=0;entryX=0.5;entryY=0;entryDx=0;entryDy=0;" edge="1" parent="1" source="bkmt0g3M4OaSRguMLRIl-7" target="bkmt0g3M4OaSRguMLRIl-9">
          <mxGeometry width="50" height="50" relative="1" as="geometry">
            <mxPoint x="360" y="250" as="sourcePoint" />
            <mxPoint x="410" y="200" as="targetPoint" />
          </mxGeometry>
        </mxCell>
        <mxCell id="bkmt0g3M4OaSRguMLRIl-12" value="Generate Code" style="rounded=0;whiteSpace=wrap;html=1;" vertex="1" parent="1">
          <mxGeometry x="550" y="230" width="190" height="100" as="geometry" />
        </mxCell>
        <mxCell id="bkmt0g3M4OaSRguMLRIl-13" value="" style="endArrow=classic;html=1;rounded=0;entryX=0;entryY=0.5;entryDx=0;entryDy=0;exitX=1;exitY=0.5;exitDx=0;exitDy=0;" edge="1" parent="1" source="bkmt0g3M4OaSRguMLRIl-9" target="bkmt0g3M4OaSRguMLRIl-12">
          <mxGeometry width="50" height="50" relative="1" as="geometry">
            <mxPoint x="370" y="400" as="sourcePoint" />
            <mxPoint x="420" y="350" as="targetPoint" />
          </mxGeometry>
        </mxCell>
        <mxCell id="bkmt0g3M4OaSRguMLRIl-15" value="Sample N generations, score using Pylint, take best score" style="rounded=0;whiteSpace=wrap;html=1;" vertex="1" parent="1">
          <mxGeometry x="260" y="390" width="190" height="100" as="geometry" />
        </mxCell>
        <mxCell id="bkmt0g3M4OaSRguMLRIl-16" value="Save source code to `persistent_source.py` file" style="rounded=0;whiteSpace=wrap;html=1;" vertex="1" parent="1">
          <mxGeometry x="550" y="390" width="190" height="100" as="geometry" />
        </mxCell>
        <mxCell id="bkmt0g3M4OaSRguMLRIl-18" value="Execute Code!" style="rounded=0;whiteSpace=wrap;html=1;" vertex="1" parent="1">
          <mxGeometry x="260" y="530" width="190" height="100" as="geometry" />
        </mxCell>
        <mxCell id="bkmt0g3M4OaSRguMLRIl-19" value="" style="endArrow=classic;html=1;rounded=0;exitX=-0.032;exitY=0.75;exitDx=0;exitDy=0;exitPerimeter=0;entryX=0.5;entryY=0;entryDx=0;entryDy=0;" edge="1" parent="1" source="bkmt0g3M4OaSRguMLRIl-12" target="bkmt0g3M4OaSRguMLRIl-15">
          <mxGeometry width="50" height="50" relative="1" as="geometry">
            <mxPoint x="310" y="390" as="sourcePoint" />
            <mxPoint x="360" y="340" as="targetPoint" />
          </mxGeometry>
        </mxCell>
        <mxCell id="bkmt0g3M4OaSRguMLRIl-20" value="" style="endArrow=classic;html=1;rounded=0;entryX=0;entryY=0.5;entryDx=0;entryDy=0;exitX=1;exitY=0.5;exitDx=0;exitDy=0;" edge="1" parent="1">
          <mxGeometry width="50" height="50" relative="1" as="geometry">
            <mxPoint x="450" y="439.5" as="sourcePoint" />
            <mxPoint x="550" y="439.5" as="targetPoint" />
          </mxGeometry>
        </mxCell>
        <mxCell id="bkmt0g3M4OaSRguMLRIl-21" value="" style="endArrow=classic;html=1;rounded=0;exitX=-0.032;exitY=0.75;exitDx=0;exitDy=0;exitPerimeter=0;entryX=0.5;entryY=0;entryDx=0;entryDy=0;" edge="1" parent="1">
          <mxGeometry width="50" height="50" relative="1" as="geometry">
            <mxPoint x="549" y="445" as="sourcePoint" />
            <mxPoint x="360" y="530" as="targetPoint" />
          </mxGeometry>
        </mxCell>
        <mxCell id="bkmt0g3M4OaSRguMLRIl-22" value="&lt;font style=&quot;font-size: 16px;&quot;&gt;code-it package&lt;/font&gt;" style="text;html=1;strokeColor=none;fillColor=none;spacing=5;spacingTop=-20;whiteSpace=wrap;overflow=hidden;rounded=0;" vertex="1" parent="1">
          <mxGeometry x="240" y="75" width="190" height="120" as="geometry" />
        </mxCell>
      </root>
    </mxGraphModel>
  </diagram>
</mxfile>
